# xmcd
#
# Track frame offsets:
# 150
# 28400
# 58183
# 87889
# 109891
# 132569
# 151638
#
# Disc length: 2337 seconds
#
#
# Revision: 0
# Processed by: cddbd v1.5.2PL0 Copyright (c) Steve Scherf et al.
# Submitted via: FreeRIP 2.945 
#
DISCID=5b091f07
DTITLE=Skyy - Skyy
DYEAR=1900
DGENRE=R&B
TTITLE0=This Groove Is Bad
TTITLE1=First Time Around
TTITLE2=Let's Turn It Out
TTITLE3=Fallin' in Love Again
TTITLE4=Stand by Me
TTITLE5=Disco Dancin'
TTITLE6=Lets Get Up (S-k-y-y)
EXTD=
EXTT0=
EXTT1=
EXTT2=
EXTT3=
EXTT4=
EXTT5=
EXTT6=
PLAYORDER=
